<?xml version="1.0" encoding="UTF-8"?>
<svg id="Layer_1" data-name="Layer 1" xmlns="http://www.w3.org/2000/svg" viewBox="0 0 400 120">
  <defs>
    <style>
      .cls-1 {
        fill: #fff;
      }

      .cls-2 {
        fill: #ff4044;
      }
    </style>
  </defs>
  <g>
    <path class="cls-1" d="M355.14,23.47c-.97,0-1.73.76-1.73,1.73s.76,1.73,1.73,1.73,1.73-.76,1.73-1.73-.76-1.73-1.73-1.73Z"/>
    <path class="cls-1" d="M356.87,31.36c0-.97-.76-1.73-1.73-1.73s-1.73.76-1.73,1.73.76,1.73,1.73,1.73,1.73-.76,1.73-1.73Z"/>
    <path class="cls-1" d="M332.82,34.32c1.02,0,1.86-.84,1.86-1.86s-.84-1.86-1.86-1.86-1.86.84-1.86,1.86.84,1.86,1.86,1.86Z"/>
    <path class="cls-1" d="M320.69,32.46c0,1.02.84,1.86,1.86,1.86s1.86-.84,1.86-1.86-.84-1.86-1.86-1.86-1.86.84-1.86,1.86Z"/>
    <path class="cls-1" d="M323.44,23.6c-4.39,0-7.98,3.26-8.51,7.51-.04.35-.07.71-.07,1.07s.03.72.07,1.07c.53,4.24,4.12,7.51,8.51,7.51h17.26v-17.16h-17.26ZM322.55,37.02c-2.5,0-4.56-2.06-4.56-4.56s2.06-4.56,4.56-4.56,4.56,2.06,4.56,4.56-2.06,4.56-4.56,4.56ZM332.82,37.02c-2.5,0-4.56-2.06-4.56-4.56s2.06-4.56,4.56-4.56,4.56,2.06,4.56,4.56-2.06,4.56-4.56,4.56Z"/>
    <path d="M335.63,44.73h-6.26c-.16,0-.31.08-.4.21-.09.13-.11.3-.05.45.38.97,1.09,2.76,1.46,3.7.15.37.5.61.9.61h4.35c.53,0,.96-.43.96-.96v-3.04c0-.53-.43-.96-.96-.96Z"/>
    <path d="M342.12,44.73h-3.79c-.16,0-.31.08-.4.21-.09.13-.11.3-.05.45.38.97,1.09,2.76,1.46,3.7.15.37.5.61.9.61h4.35c.53,0,.96-.43.96-.96v-.58c0-1.89-1.54-3.43-3.43-3.43Z"/>
    <path d="M359.57,25.2c0-2.43-2-4.43-4.43-4.43s-4.43,2-4.43,4.43c0,.61.13,1.2.36,1.73h-2.34v-1.28c0-1.33-.53-2.6-1.47-3.54-.94-.94-2.21-1.47-3.54-1.47h-13.05v-1.09l1.89-2.23c.43-.5.43-1.24,0-1.75l-.64-.76,1.09-1.28c.21-.24.32-.55.32-.87,0-.4-.17-.77-.48-1.03-.27-.23-.63-.35-.98-.32-.36.03-.69.2-.92.47l-1.83,2.15c-.43.5-.43,1.24,0,1.75l.64.76-1.47,1.74c-.21.24-.32.55-.32.87v1.59h-1.35v-1.59c0-.32-.11-.63-.32-.87l-1.47-1.74.64-.76c.43-.5.43-1.24,0-1.75l-1.83-2.15c-.23-.27-.56-.44-.92-.47h0c-.36-.03-.71.08-.98.32-.56.48-.63,1.34-.16,1.9l1.09,1.28-.64.76c-.43.5-.43,1.24,0,1.75l1.9,2.23v1.09h-.5c-1.87,0-3.64.46-5.21,1.26-1.25.64-2.37,1.49-3.3,2.52-1.87,2.05-3.02,4.77-3.02,7.75s1.15,5.7,3.02,7.75c.78.86,1.69,1.6,2.7,2.19,1.71,1,3.69,1.59,5.81,1.59h20.28c1.33,0,2.6-.53,3.54-1.47h0c.94-.94,1.47-2.21,1.47-3.54v-9.07h2.34c-.23.53-.36,1.12-.36,1.73,0,2.43,2,4.43,4.43,4.43s4.43-2,4.43-4.43c0-1.2-.49-2.28-1.27-3.08.78-.8,1.27-1.89,1.27-3.08ZM340.7,40.76h-17.26c-4.39,0-7.98-3.26-8.51-7.51-.04-.35-.07-.71-.07-1.07s.03-.72.07-1.07c.53-4.24,4.12-7.51,8.51-7.51h17.26v17.16ZM353.41,31.36c0-.97.76-1.73,1.73-1.73s1.73.76,1.73,1.73-.76,1.73-1.73,1.73-1.73-.76-1.73-1.73ZM355.14,26.93c-.97,0-1.73-.76-1.73-1.73s.76-1.73,1.73-1.73,1.73.76,1.73,1.73-.76,1.73-1.73,1.73Z"/>
    <path d="M325.64,44.73h-6.26c-.53,0-.96.43-.96.96v3.04c0,.53.43.96.96.96h4.35c.4,0,.75-.24.9-.61.37-.94,1.08-2.73,1.46-3.7.06-.15.04-.32-.05-.45-.09-.13-.24-.21-.4-.21Z"/>
    <path d="M317.99,32.46c0,2.5,2.06,4.56,4.56,4.56s4.56-2.06,4.56-4.56-2.06-4.56-4.56-4.56-4.56,2.06-4.56,4.56ZM324.4,32.46c0,1.02-.84,1.86-1.86,1.86s-1.86-.84-1.86-1.86.84-1.86,1.86-1.86,1.86.84,1.86,1.86Z"/>
    <path d="M332.82,37.02c2.5,0,4.56-2.06,4.56-4.56s-2.06-4.56-4.56-4.56-4.56,2.06-4.56,4.56,2.06,4.56,4.56,4.56ZM332.82,30.6c1.02,0,1.86.84,1.86,1.86s-.84,1.86-1.86,1.86-1.86-.84-1.86-1.86.84-1.86,1.86-1.86Z"/>
  </g>
  <g>
    <path class="cls-2" d="M56.72,51.9c3.61,3.7,5.42,8.87,5.42,15.51v28.89h-12.44v-27.2c0-3.91-.98-6.92-2.93-9.02-1.96-2.1-4.62-3.16-8-3.16s-6.15,1.05-8.13,3.16c-1.99,2.1-2.98,5.11-2.98,9.02v27.2h-12.44v-49.24h12.44v6.13c1.66-2.13,3.78-3.81,6.36-5.02,2.58-1.21,5.41-1.82,8.49-1.82,5.87,0,10.61,1.85,14.22,5.56Z"/>
    <path class="cls-2" d="M73.74,58.25c1.98-3.85,4.68-6.81,8.09-8.89,3.41-2.07,7.21-3.11,11.42-3.11,3.67,0,6.89.74,9.64,2.22,2.75,1.48,4.96,3.35,6.62,5.6v-7.02h12.53v49.24h-12.53v-7.2c-1.6,2.31-3.81,4.22-6.62,5.73-2.82,1.51-6.06,2.27-9.73,2.27-4.15,0-7.93-1.07-11.33-3.2-3.41-2.13-6.1-5.14-8.09-9.02-1.99-3.88-2.98-8.34-2.98-13.38s.99-9.39,2.98-13.24ZM107.74,63.9c-1.19-2.16-2.79-3.82-4.8-4.98-2.01-1.16-4.18-1.73-6.49-1.73s-4.44.56-6.4,1.69c-1.96,1.13-3.54,2.77-4.76,4.93-1.21,2.16-1.82,4.73-1.82,7.69s.61,5.55,1.82,7.78c1.21,2.22,2.81,3.93,4.8,5.11,1.98,1.19,4.1,1.78,6.35,1.78s4.47-.58,6.49-1.73c2.01-1.16,3.61-2.81,4.8-4.98,1.18-2.16,1.78-4.76,1.78-7.78s-.59-5.61-1.78-7.78Z"/>
    <path class="cls-2" d="M175.73,51.9c3.61,3.7,5.42,8.87,5.42,15.51v28.89h-12.44v-27.2c0-3.91-.98-6.92-2.93-9.02-1.96-2.1-4.62-3.16-8-3.16s-6.15,1.05-8.13,3.16c-1.99,2.1-2.98,5.11-2.98,9.02v27.2h-12.44v-49.24h12.44v6.13c1.66-2.13,3.78-3.81,6.36-5.02,2.58-1.21,5.41-1.82,8.49-1.82,5.87,0,10.61,1.85,14.22,5.56Z"/>
    <path class="cls-2" d="M202.04,93.94c-3.79-2.1-6.77-5.08-8.93-8.93-2.16-3.85-3.24-8.29-3.24-13.33s1.11-9.48,3.33-13.33c2.22-3.85,5.26-6.83,9.11-8.93,3.85-2.1,8.15-3.16,12.89-3.16s9.04,1.05,12.89,3.16c3.85,2.1,6.89,5.08,9.11,8.93,2.22,3.85,3.33,8.3,3.33,13.33s-1.14,9.48-3.42,13.33c-2.28,3.85-5.36,6.83-9.24,8.93-3.88,2.1-8.22,3.16-13.02,3.16s-9.01-1.05-12.8-3.16ZM221.2,84.6c1.98-1.1,3.57-2.74,4.76-4.93,1.18-2.19,1.78-4.86,1.78-8,0-4.68-1.23-8.28-3.69-10.8-2.46-2.52-5.46-3.78-9.02-3.78s-6.53,1.26-8.93,3.78c-2.4,2.52-3.6,6.12-3.6,10.8s1.17,8.28,3.51,10.8c2.34,2.52,5.29,3.78,8.84,3.78,2.25,0,4.37-.55,6.36-1.64Z"/>
    <path class="cls-2" d="M268.75,48.47c2.81-1.48,6.03-2.22,9.64-2.22,4.21,0,8.01,1.04,11.42,3.11,3.41,2.07,6.1,5.02,8.09,8.84,1.98,3.82,2.98,8.25,2.98,13.29s-.99,9.5-2.98,13.38c-1.99,3.88-4.68,6.89-8.09,9.02-3.41,2.13-7.21,3.2-11.42,3.2-3.67,0-6.89-.73-9.64-2.18-2.76-1.45-4.96-3.33-6.62-5.64v7.02h-12.44V30.52h12.44v23.73c1.6-2.37,3.81-4.3,6.62-5.78ZM286.34,63.81c-1.21-2.16-2.82-3.81-4.8-4.93-1.99-1.12-4.13-1.69-6.44-1.69s-4.37.58-6.35,1.73c-1.99,1.16-3.59,2.83-4.8,5.02-1.21,2.19-1.82,4.77-1.82,7.73s.61,5.54,1.82,7.73c1.21,2.19,2.81,3.87,4.8,5.02,1.98,1.16,4.1,1.73,6.35,1.73s4.46-.59,6.44-1.78c1.98-1.18,3.58-2.87,4.8-5.07,1.21-2.19,1.82-4.8,1.82-7.82s-.61-5.52-1.82-7.69Z"/>
    <path class="cls-2" d="M319.01,93.94c-3.79-2.1-6.77-5.08-8.93-8.93-2.16-3.85-3.24-8.29-3.24-13.33s1.11-9.48,3.33-13.33c2.22-3.85,5.26-6.83,9.11-8.93,3.85-2.1,8.15-3.16,12.89-3.16s9.04,1.05,12.89,3.16c3.85,2.1,6.89,5.08,9.11,8.93,2.22,3.85,3.33,8.3,3.33,13.33s-1.14,9.48-3.42,13.33c-2.28,3.85-5.36,6.83-9.24,8.93-3.88,2.1-8.22,3.16-13.02,3.16s-9.01-1.05-12.8-3.16ZM338.16,84.6c1.99-1.1,3.57-2.74,4.76-4.93,1.18-2.19,1.78-4.86,1.78-8,0-4.68-1.23-8.28-3.69-10.8-2.46-2.52-5.47-3.78-9.02-3.78s-6.53,1.26-8.93,3.78c-2.4,2.52-3.6,6.12-3.6,10.8s1.17,8.28,3.51,10.8c2.34,2.52,5.29,3.78,8.84,3.78,2.25,0,4.37-.55,6.35-1.64Z"/>
    <path class="cls-2" d="M381.14,57.27v23.82c0,1.66.4,2.86,1.2,3.6.8.74,2.15,1.11,4.04,1.11h5.78v10.49h-7.82c-10.49,0-15.73-5.1-15.73-15.29v-23.73h-5.87v-10.22h5.87v-12.18h12.53v12.18h11.02v10.22h-11.02Z"/>
  </g>
  <g>
    <path class="cls-1" d="M76.45,24.39h-1.38v.85c0,1.32-.53,2.25-1.46,3.19-.94.94-2.2.78-3.53.78h-5.35c-1.32,0-2.25.16-3.19-.78-.94-.94-1.46-1.86-1.46-3.19v-.85h-1.38c-2.39,0-4.3,1.91-4.3,4.3v11.8c0,2.39,1.91,4.3,4.3,4.3h17.74c2.39,0,4.3-1.91,4.3-4.3v-11.8c0-2.39-1.91-4.3-4.3-4.3ZM66.75,37.71c0,.54-.44.97-.97.97h-3.78c-.54,0-.97-.44-.97-.97v-3.9c0-.54.44-.97.97-.97h3.78c.54,0,.97.44.97.97v3.9ZM74.14,37.71c0,.54-.44.97-.97.97h-3.78c-.54,0-.97-.44-.97-.97v-3.9c0-.54.44-.97.97-.97h3.78c.54,0,.97.44.97.97v3.9Z"/>
    <path d="M74.78,49.7h-4.71c-.38,0-.74.15-1.01.42s-.42.63-.42,1.01v4.62c0,1.82,1.48,3.3,3.3,3.3,1.06,0,2.06-.53,2.66-1.4.66-.97,1.58-2.31,2.47-3.61.58-.85.64-1.94.16-2.85-.48-.91-1.42-1.47-2.45-1.47Z"/>
    <path d="M88.24,30.81c-.8,0-1.46.66-1.46,1.46v1.77h-2.82v-5.35c0-4.12-3.38-7.5-7.5-7.5h-.87l1.37-5.11c1.07-.33,1.8-1.34,1.8-2.48,0-1.43-1.15-2.6-2.54-2.6h0c-1.4,0-2.54,1.17-2.54,2.6,0,.56.18,1.1.51,1.55l-1.62,6.05h-9.95l-1.62-6.05c.33-.45.5-.99.51-1.55,0-1.43-1.15-2.6-2.54-2.6h0c-1.4,0-2.54,1.17-2.54,2.6,0,1.14.74,2.15,1.8,2.48l1.37,5.11h-.87c-4.12,0-7.5,3.38-7.5,7.5v5.35h-2.82v-1.77c0-.8-.66-1.46-1.46-1.46s-1.46.66-1.46,1.46v6.61c.01.8.67,1.44,1.46,1.44s1.45-.65,1.46-1.44v-1.92h2.82v3.53c0,4.12,3.38,7.5,7.5,7.5h17.74c4.12,0,7.5-3.38,7.5-7.5v-3.53h2.82v1.92c.01.8.67,1.44,1.46,1.44s1.45-.65,1.46-1.44v-6.61c0-.8-.66-1.46-1.46-1.46ZM80.75,40.49c0,2.39-1.91,4.3-4.3,4.3h-17.74c-2.39,0-4.3-1.91-4.3-4.3v-11.8c0-2.39,1.91-4.3,4.3-4.3h1.38v.85c0,1.32.53,2.25,1.46,3.19.94.94,1.86.78,3.19.78h5.35c1.32,0,2.59.16,3.53-.78.94-.94,1.46-1.86,1.46-3.19v-.85h1.38c2.39,0,4.3,1.91,4.3,4.3v11.8Z"/>
    <path d="M64.82,19.46c.17.23.44.36.73.36s.56-.13.73-.36l1.37-1.8,1.31,1.73c.17.23.44.36.73.36s.56-.13.73-.36l1.66-2.18c.3-.4.22-.98-.18-1.28-.16-.12-.35-.19-.55-.19-.29,0-.56.13-.73.36l-.93,1.22-1.31-1.73c-.17-.23-.44-.36-.73-.36h0c-.29,0-.56.13-.73.36l-1.37,1.8-1-1.32c-.3-.4-.88-.48-1.28-.18-.4.3-.48.88-.18,1.28l1.73,2.28Z"/>
    <path d="M65.09,49.7h-4.71c-1.03,0-1.97.57-2.45,1.47-.48.91-.42,2,.16,2.85.89,1.3,1.81,2.64,2.47,3.61.6.88,1.59,1.4,2.66,1.4h0c1.82,0,3.3-1.48,3.3-3.3v-4.62c0-.38-.15-.74-.42-1.01s-.63-.42-1.01-.42Z"/>
    <rect x="61.02" y="32.83" width="5.73" height="5.85" rx=".97" ry=".97"/>
    <path d="M69.39,32.83h3.78c.54,0,.97.44.97.97v3.9c0,.54-.44.97-.97.97h-3.78c-.54,0-.97-.44-.97-.97v-3.9c0-.54.44-.97.97-.97Z"/>
  </g>
  <g>
    <path class="cls-1" d="M258.16,89.85c0-2.61-2.08-4.69-4.69-4.69h-17.62c-2.61,0-4.69,2.08-4.69,4.69s2.08,4.69,4.69,4.69h17.62c2.61,0,4.69-2.08,4.69-4.69ZM236.78,93.19c-1.83,0-3.34-1.51-3.34-3.34s1.51-3.34,3.34-3.34,3.34,1.51,3.34,3.34-1.51,3.34-3.34,3.34ZM244.66,93.19c-1.83,0-3.34-1.51-3.34-3.34s1.51-3.34,3.34-3.34,3.34,1.51,3.34,3.34-1.51,3.34-3.34,3.34ZM252.54,93.19c-1.83,0-3.34-1.51-3.34-3.34s1.51-3.34,3.34-3.34,3.34,1.51,3.34,3.34-1.51,3.34-3.34,3.34Z"/>
    <path class="cls-1" d="M252.54,89.04c-.46,0-.81.35-.81.81s.35.81.81.81.81-.35.81-.81-.35-.81-.81-.81Z"/>
    <path class="cls-1" d="M236.78,89.04c-.46,0-.81.35-.81.81s.35.81.81.81.81-.35.81-.81-.35-.81-.81-.81Z"/>
    <path class="cls-1" d="M244.66,89.04c-.46,0-.81.35-.81.81s.35.81.81.81.81-.35.81-.81-.35-.81-.81-.81Z"/>
    <path class="cls-1" d="M231.15,72.11c0,2.61,2.08,4.69,4.69,4.69h17.62c2.61,0,4.69-2.08,4.69-4.69s-2.08-4.69-4.69-4.69h-17.62c-2.61,0-4.69,2.08-4.69,4.69ZM253,68.64c1.91,0,3.47,1.57,3.47,3.47s-1.57,3.48-3.47,3.48-3.48-1.57-3.48-3.48,1.57-3.47,3.48-3.47ZM236.32,68.64c1.91,0,3.48,1.57,3.48,3.47s-1.57,3.48-3.48,3.48-3.48-1.57-3.48-3.48c0-1.91,1.57-3.47,3.48-3.47Z"/>
    <path d="M253.47,82.37h-8.44l2.27-2.78h6.17c4.11,0,7.48-3.36,7.48-7.48s-3.36-7.48-7.48-7.48h-6.51l6.37-6.37c.49-.49.49-1.3,0-1.79-.24-.24-.56-.37-.89-.37-.34,0-.66.13-.9.37l-6.94,6.94-4.13-4.13c-.24-.24-.56-.37-.9-.37s-.66.13-.9.37c-.24.24-.37.56-.37.9s.13.66.37.9l3.56,3.56h-6.39c-4.11,0-7.48,3.36-7.48,7.48s3.36,7.48,7.48,7.48h7.85l-1.85,2.27c-.12.15-.21.32-.26.51h-5.74c-4.11,0-7.48,3.36-7.48,7.48s3.36,7.48,7.48,7.48h17.62c4.11,0,7.48-3.36,7.48-7.48s-3.36-7.48-7.48-7.48ZM235.84,94.54c-2.61,0-4.69-2.08-4.69-4.69s2.08-4.69,4.69-4.69h17.62c2.61,0,4.69,2.08,4.69,4.69s-2.08,4.69-4.69,4.69h-17.62ZM253.47,67.42c2.61,0,4.69,2.08,4.69,4.69s-2.08,4.69-4.69,4.69h-17.62c-2.61,0-4.69-2.08-4.69-4.69s2.08-4.69,4.69-4.69h17.62Z"/>
    <path d="M244.66,86.51c-1.83,0-3.34,1.51-3.34,3.34s1.51,3.34,3.34,3.34,3.34-1.51,3.34-3.34-1.51-3.34-3.34-3.34ZM244.66,90.65c-.46,0-.81-.35-.81-.81s.35-.81.81-.81.81.35.81.81-.35.81-.81.81Z"/>
    <path d="M252.54,86.51c-1.83,0-3.34,1.51-3.34,3.34s1.51,3.34,3.34,3.34,3.34-1.51,3.34-3.34-1.51-3.34-3.34-3.34ZM252.54,90.65c-.46,0-.81-.35-.81-.81s.35-.81.81-.81.81.35.81.81-.35.81-.81.81Z"/>
    <path d="M236.78,86.51c-1.83,0-3.34,1.51-3.34,3.34s1.51,3.34,3.34,3.34,3.34-1.51,3.34-3.34-1.51-3.34-3.34-3.34ZM236.78,90.65c-.46,0-.81-.35-.81-.81s.35-.81.81-.81.81.35.81.81-.35.81-.81.81Z"/>
    <path d="M236.32,75.59c1.91,0,3.48-1.57,3.48-3.48s-1.57-3.47-3.48-3.47-3.48,1.57-3.48,3.47c0,1.91,1.57,3.48,3.48,3.48Z"/>
    <path d="M253,75.59c1.91,0,3.47-1.57,3.47-3.48s-1.57-3.47-3.47-3.47-3.48,1.57-3.48,3.47,1.57,3.48,3.48,3.48Z"/>
  </g>
</svg>